<?xml version="1.0" standalone="no"?>
<!DOCTYPE svg PUBLIC "-//W3C//DTD SVG 20010904//EN"
 "http://www.w3.org/TR/2001/REC-SVG-20010904/DTD/svg10.dtd">
<svg version="1.0" xmlns="http://www.w3.org/2000/svg"
 width="200.000000pt" height="200.000000pt" viewBox="0 0 200.000000 200.000000"
 preserveAspectRatio="xMidYMid meet">

<g transform="translate(0.000000,200.000000) scale(0.100000,-0.100000)"
fill="#000000" stroke="none">
<path d="M1790 1979 c-9 -15 -8 -24 1 -35 12 -15 74 -19 83 -5 3 4 -11 8 -32
7 -31 -1 -37 2 -37 19 0 17 6 20 37 19 21 -1 35 3 32 7 -3 5 -21 9 -39 9 -24
0 -38 -6 -45 -21z"/>
<path d="M1674 1917 c-33 -24 -174 -122 -314 -219 -140 -96 -307 -212 -370
-256 -63 -45 -121 -82 -127 -82 -10 0 -13 36 -13 145 l0 145 -84 0 c-72 0 -85
-3 -89 -17 -10 -40 -7 -613 3 -613 6 0 83 51 173 113 89 62 168 117 175 121 8
5 29 -3 52 -19 119 -83 136 -339 30 -445 -24 -24 -49 -40 -62 -39 -13 0 -99
53 -193 118 -93 65 -173 116 -178 114 -4 -2 -6 -145 -5 -316 l3 -312 88 -3 87
-3 0 144 c0 79 3 147 6 150 7 7 155 -92 579 -388 143 -100 272 -189 288 -199
l27 -18 0 106 0 105 -104 73 c-57 40 -179 124 -270 187 -91 63 -166 117 -166
121 0 3 16 24 36 46 152 168 149 488 -7 649 -21 22 -35 45 -31 50 9 13 149
112 375 265 l167 114 0 103 c0 57 -4 103 -9 103 -5 0 -35 -19 -67 -43z"/>
<path d="M1790 1905 c0 -17 33 -65 44 -65 14 0 43 57 33 66 -3 3 -12 -7 -20
-23 l-15 -28 -13 28 c-11 23 -29 37 -29 22z"/>
<path d="M1797 1813 c-11 -10 -8 -63 3 -63 6 0 10 5 10 10 0 6 9 10 19 10 11
0 23 -4 26 -10 11 -18 20 -10 21 19 1 22 -4 31 -20 35 -28 8 -51 7 -59 -1z
m56 -12 c5 -1 5 -5 2 -11 -9 -15 -45 -12 -45 4 0 8 8 13 18 11 9 -2 21 -4 25
-4z"/>
<path d="M271 1633 c-64 -23 -135 -97 -149 -155 -16 -63 -17 -891 -1 -953 14
-57 66 -117 126 -146 67 -32 179 -32 245 0 59 28 113 87 127 138 14 50 15 390
1 398 -17 11 -116 18 -144 11 l-26 -6 0 -180 c0 -174 -1 -179 -22 -194 -29
-20 -87 -20 -116 0 l-22 15 0 439 c0 497 -4 470 79 470 81 0 80 1 83 -210 l3
-185 73 -3 c48 -2 79 1 89 9 12 11 14 45 11 209 l-3 197 -30 48 c-43 69 -114
107 -209 111 -48 3 -85 -2 -115 -13z"/>
<path d="M1790 1596 c0 -36 13 -48 23 -22 3 8 18 16 34 18 46 5 35 32 -14 36
l-43 3 0 -35z m65 14 c-3 -5 -15 -10 -26 -10 -10 0 -19 5 -19 10 0 6 12 10 26
10 14 0 23 -4 19 -10z"/>
<path d="M1790 1506 c0 -20 5 -36 10 -36 6 0 10 7 10 15 0 8 9 15 19 15 10 0
21 -7 25 -15 10 -27 24 -16 22 18 -1 30 -4 32 -44 35 l-42 3 0 -35z m70 14 c0
-5 -11 -10 -25 -10 -14 0 -25 5 -25 10 0 6 11 10 25 10 14 0 25 -4 25 -10z"/>
<path d="M1789 1434 c-19 -23 1 -48 43 -52 43 -4 65 17 48 47 -13 26 -71 29
-91 5z m74 -6 c7 -22 -4 -38 -28 -38 -27 0 -39 14 -31 35 7 18 53 20 59 3z"/>
<path d="M1800 1325 c0 -19 5 -35 10 -35 6 0 10 6 10 14 0 8 12 17 28 19 l27
4 -27 2 c-16 0 -28 5 -28 10 0 5 12 12 28 14 22 3 20 4 -10 6 -37 1 -38 0 -38
-34z"/>
<path d="M1802 1261 c-8 -5 -12 -21 -10 -37 3 -26 7 -29 41 -32 21 -2 37 1 37
7 0 6 -14 11 -32 11 -36 0 -28 16 12 23 20 3 18 5 -9 6 -38 1 -33 16 9 24 23
4 22 4 -5 5 -16 1 -36 -2 -43 -7z"/>
<path d="M1808 1173 c-31 -8 -20 -32 17 -39 19 -3 32 -11 29 -16 -4 -6 -21 -8
-38 -5 -27 5 -28 5 -9 -5 26 -12 76 -2 71 14 -2 6 -19 17 -37 23 -37 12 -31
27 8 19 20 -4 23 -3 11 5 -16 11 -23 12 -52 4z"/>
<path d="M1808 1082 c-29 -6 -21 -32 12 -38 17 -4 30 -11 30 -16 0 -6 -13 -8
-30 -4 -19 3 -29 2 -25 -4 8 -12 55 -13 74 -1 19 12 7 27 -31 36 l-33 8 35 6
c32 6 33 7 10 12 -14 3 -33 3 -42 1z"/>
<path d="M1820 955 c0 -19 5 -35 10 -35 6 0 10 16 10 35 0 19 -4 35 -10 35 -5
0 -10 -16 -10 -35z"/>
<path d="M1790 885 c-23 -28 -8 -50 37 -53 35 -3 44 1 54 19 10 19 9 25 -7 36
-24 17 -69 17 -84 -2z m67 -6 c17 -17 4 -39 -22 -39 -27 0 -39 14 -31 35 6 18
37 20 53 4z"/>
<path d="M1790 775 c0 -19 5 -35 10 -35 6 0 10 10 10 22 l0 21 23 -21 c33 -31
47 -28 47 13 0 19 -4 35 -10 35 -5 0 -10 -12 -10 -27 l0 -27 -28 27 c-37 35
-42 34 -42 -8z"/>
<path d="M1806 691 c-21 -40 -21 -58 -1 -41 9 8 27 10 46 6 l31 -6 -19 32
c-25 43 -39 45 -57 9z m33 -20 c-15 -5 -22 6 -14 19 6 9 10 9 16 -1 5 -8 4
-15 -2 -18z"/>
<path d="M1802 588 c3 -30 6 -33 38 -34 26 -1 28 -1 8 3 -23 4 -28 9 -28 34 0
16 -5 29 -11 29 -6 0 -9 -14 -7 -32z"/>
<path d="M1806 415 c-20 -31 -21 -46 -1 -39 8 4 15 15 15 25 0 19 11 25 23 12
4 -3 1 -13 -5 -22 -7 -9 -8 -13 -4 -9 5 4 15 3 23 -4 22 -18 25 -3 6 31 -22
37 -35 39 -57 6z"/>
<path d="M1792 318 c2 -28 8 -34 31 -36 16 -2 35 2 43 9 16 13 19 59 4 59 -5
0 -10 -13 -10 -30 0 -25 -4 -30 -25 -30 -21 0 -25 5 -25 30 0 17 -5 30 -11 30
-6 0 -9 -14 -7 -32z"/>
<path d="M1790 224 l0 -35 42 3 c33 2 44 7 47 22 4 25 -24 46 -61 46 -25 0
-28 -3 -28 -36z m68 -1 c3 -19 -1 -23 -22 -23 -21 0 -26 5 -26 26 0 21 4 25
23 22 14 -2 23 -11 25 -25z"/>
<path d="M1827 163 c-11 -10 -8 -63 3 -63 6 0 10 16 10 35 0 36 -2 40 -13 28z"/>
<path d="M1803 70 c-25 -10 -30 -39 -11 -58 17 -17 64 -15 82 4 21 21 20 30
-6 48 -25 18 -33 19 -65 6z m52 -14 c17 -12 17 -16 5 -30 -7 -10 -23 -16 -34
-14 -24 4 -34 37 -14 49 18 12 21 11 43 -5z"/>
</g>
</svg>
